<svg id="Layer_1" data-name="Layer 1" xmlns="http://www.w3.org/2000/svg" xmlns:xlink="http://www.w3.org/1999/xlink" viewBox="0 0 127.48 68.97"><defs><style>.cls-1{fill:#121212;}.cls-2{fill:url(#Red);}.cls-3{fill:url(#Red-2);}</style><linearGradient id="Red" x1="-13.37" y1="42.68" x2="16.54" y2="42.68" gradientUnits="userSpaceOnUse"><stop offset="0" stop-color="#f37f7b"/><stop offset="0.5" stop-color="#ed3d57"/><stop offset="1" stop-color="#dd1e47"/></linearGradient><linearGradient id="Red-2" x1="-28.21" y1="43.88" x2="1.69" y2="43.88" gradientTransform="matrix(-1, -0.07, -0.07, 1, 88.33, -0.84)" xlink:href="#Red"/></defs><title>shipment</title><path class="cls-1" d="M79,29.3h0L50.14,15.64a1.34,1.34,0,0,0-1,0L20.81,29.16a1.41,1.41,0,0,0-1,.83l-.28.76a4,4,0,0,0-.14,1V68.42a2.51,2.51,0,0,0,1.45,2.28L47.52,83.53l.55.28.55.28a3.06,3.06,0,0,0,1.45.41,2.46,2.46,0,0,0,1.45-.41l.48-.28.55-.28L79.19,70.7a2.51,2.51,0,0,0,1.45-2.28V31.71A2.47,2.47,0,0,0,79,29.3ZM49.59,18.12,74.77,30.4l-10.28,5L39.86,23Zm-1,63.14h0L21.92,68.42h0V32.27l26.7,12.62ZM50,42.41c-.07-.07-.14-.07-.28-.14l-24.84-12L37,24.33,61.66,36.82,50.34,42.27a.4.4,0,0,0-.34.14Zm28.08,26h0L51.38,81.26h0V44.82l12.9-6.21V50.69a1.25,1.25,0,0,0,2.49,0V37.79a.89.89,0,0,0-.07-.42l11.38-5.52Z" transform="translate(13.37 -15.53)"/><path class="cls-1" d="M79,29.3Z" transform="translate(13.37 -15.53)"/><path class="cls-2" d="M13.16,38A14.13,14.13,0,0,0,7.5,35.2a46.32,46.32,0,0,0-5.17-.83L-4.37,34c-2.62-.07-5-.62-7-2.49a8,8,0,0,0-.89-.62c-.63-.34-1-.13-1.11.56A4,4,0,0,0-13.2,33a12.16,12.16,0,0,0,2.69,4.9c.21.28.55.48.55.9a8.2,8.2,0,0,0,3.45,5.93,2.86,2.86,0,0,1,.76,1A8.26,8.26,0,0,0-2.57,49.9a11.32,11.32,0,0,0,4.69,1.72,1.08,1.08,0,0,1,1,.62,4,4,0,0,0,1.8,1.59,9.36,9.36,0,0,0,7.93-.07,5.3,5.3,0,0,0,3-3.24,15.22,15.22,0,0,0,.76-4.28A13.14,13.14,0,0,0,14.74,40,6.46,6.46,0,0,0,13.16,38Zm.76,12.56a3.12,3.12,0,0,1-.83,1c-1.86,1.59-6.21,1.93-8.07.55-.14-.13-.35-.2-.42-.55a16.16,16.16,0,0,0,2.49-.83c.82-.41,1.1-.75,1-1.17s-.62-.55-1.52-.21A7.13,7.13,0,0,1,1.77,50c-2.07-.56-4.07-1.25-5.45-3-.14-.21-.34-.35-.27-.69l2.48.21A6,6,0,0,0,1.43,46c.34-.14.69-.34.55-.83a.66.66,0,0,0-.83-.48,8.7,8.7,0,0,0-1.31.21c-3.17.55-5.52-.83-7.38-3.31a5,5,0,0,1-1-1.66c.35-.21.55.07.76.21a11.33,11.33,0,0,0,5.8,1.38,2.14,2.14,0,0,0,1.58-.49.74.74,0,0,0,.28-.75.7.7,0,0,0-.69-.42,5.76,5.76,0,0,0-1.1.07c-4.14.55-8.49-2.48-10-6.07-.14-.28-.34-.55-.07-1,.55.42,1,.76,1.59,1.11a10.47,10.47,0,0,0,4.55,1.38c2.21.2,4.49.41,6.7.48a23.77,23.77,0,0,1,6.62,1c4.62,1.45,6.62,3.94,7.38,8.77A8.34,8.34,0,0,1,13.92,50.59Z" transform="translate(13.37 -15.53)"/><path class="cls-3" d="M85.48,40.29a13.26,13.26,0,0,0-2.24,6.07,15,15,0,0,0,.46,4.32,5.29,5.29,0,0,0,2.72,3.44,9.39,9.39,0,0,0,7.91.64,4,4,0,0,0,1.9-1.45,1.08,1.08,0,0,1,1-.55,11.53,11.53,0,0,0,4.81-1.39,8.26,8.26,0,0,0,3.46-3.9,3,3,0,0,1,.83-1,8.17,8.17,0,0,0,3.87-5.67c0-.41.39-.59.61-.85a12.31,12.31,0,0,0,3-4.7,4.27,4.27,0,0,0,.25-1.57c-.09-.7-.42-.93-1.06-.63a7.64,7.64,0,0,0-.94.55,9.85,9.85,0,0,1-7.13,2l-6.71-.06a44.13,44.13,0,0,0-5.22.45,14.07,14.07,0,0,0-5.84,2.42A6.53,6.53,0,0,0,85.48,40.29Zm-.54,5.63c1.1-4.76,3.27-7.09,8-8.21a24,24,0,0,1,6.68-.56c2.21.09,4.49.05,6.71,0a10.32,10.32,0,0,0,4.64-1,18.13,18.13,0,0,0,1.66-1c.25.44,0,.7-.14,1-1.77,3.47-6.32,6.19-10.41,5.34a6.77,6.77,0,0,0-1.1-.15.68.68,0,0,0-.71.37.74.74,0,0,0,.22.77A2.14,2.14,0,0,0,102,43a11.29,11.29,0,0,0,5.88-1c.21-.12.44-.38.77-.15a5,5,0,0,1-1.09,1.58c-2,2.34-4.47,3.55-7.6,2.77a9.64,9.64,0,0,0-1.29-.3.66.66,0,0,0-.86.43c-.17.47.16.7.49.86a6.1,6.1,0,0,0,2.86.69l2.49,0c0,.35-.17.47-.32.67-1.51,1.69-3.55,2.24-5.66,2.64a7.17,7.17,0,0,1-4.7-1c-.87-.41-1.29-.37-1.53.1s.08.76.88,1.23a16.77,16.77,0,0,0,2.42,1c-.1.34-.31.39-.46.52-2,1.24-6.27.59-8-1.13a3.12,3.12,0,0,1-.75-1.09A8.39,8.39,0,0,1,84.94,45.92Z" transform="translate(13.37 -15.53)"/></svg>