<svg id="Layer_1" data-name="Layer 1" xmlns="http://www.w3.org/2000/svg" xmlns:xlink="http://www.w3.org/1999/xlink" viewBox="0 0 111.84 82.09"><defs><style>.cls-1{fill:#121212;}.cls-2{fill:url(#Red);}.cls-3{fill:url(#Red-2);}</style><linearGradient id="Red" x1="90.53" y1="8.14" x2="97.18" y2="8.14" gradientUnits="userSpaceOnUse"><stop offset="0" stop-color="#f37f7b"/><stop offset="0.5" stop-color="#ed3d57"/><stop offset="1" stop-color="#dd1e47"/></linearGradient><linearGradient id="Red-2" x1="-6.2" y1="75.22" x2="0.2" y2="75.22" xlink:href="#Red"/></defs><title>beer_selection</title><path class="cls-1" d="M30.9,38.74,28.42,22.61a.94.94,0,0,0,.35-.25,1.05,1.05,0,0,0,.25-.82l-.3-2.32A1.76,1.76,0,0,0,27,17.68H20.69a1.76,1.76,0,0,0-1.75,1.54l-.29,2.32a1,1,0,0,0,.25.82,1,1,0,0,0,.45.29L16.78,38.72a10.64,10.64,0,0,0-3.62,8V78.8a3.56,3.56,0,0,0,3.56,3.55H31A3.55,3.55,0,0,0,34.5,78.8V46.73A10.68,10.68,0,0,0,30.9,38.74ZM21,19.75H26.7l.12.89h-6ZM32.43,78.8A1.48,1.48,0,0,1,31,80.28H16.72a1.49,1.49,0,0,1-1.49-1.48V46.73a8.56,8.56,0,0,1,5.42-8,1,1,0,0,0-.77-1.92c-.26.1-.51.21-.76.33l2.32-14.44h4.9l2.23,14.46-.51-.24a1,1,0,1,0-.82,1.9,8.61,8.61,0,0,1,5.19,7.9Z" transform="translate(10.54 -1.21)"/><path class="cls-1" d="M23.74,47.37a7.22,7.22,0,0,0-7.21,7.21V66.92a7.21,7.21,0,0,0,14.41,0V54.58A7.22,7.22,0,0,0,23.74,47.37Zm5.13,19.55a5.14,5.14,0,0,1-10.27,0V54.58a5.14,5.14,0,1,1,10.27,0Z" transform="translate(10.54 -1.21)"/><path class="cls-1" d="M17.27,46.53a1,1,0,0,0,1-1,2.41,2.41,0,0,1,.07-.48,1,1,0,1,0-2-.43,4.91,4.91,0,0,0-.1.77,1,1,0,0,0,1,1.1Z" transform="translate(10.54 -1.21)"/><path class="cls-1" d="M18.51,43.66a1,1,0,0,0,.78-.36A6.06,6.06,0,0,1,20.91,42,1,1,0,0,0,20,40.15,8,8,0,0,0,17.72,42a1,1,0,0,0,.79,1.71Z" transform="translate(10.54 -1.21)"/><path class="cls-1" d="M84.81,38.68l-2.5-16.22a1,1,0,0,0,.36-.26,1.1,1.1,0,0,0,.25-.82l-.3-2.33a1.78,1.78,0,0,0-1.75-1.55H74.55a1.78,1.78,0,0,0-1.76,1.55l-.29,2.33a1,1,0,0,0,.25.82.93.93,0,0,0,.46.29L70.62,38.66A10.66,10.66,0,0,0,67,46.71V79a3.57,3.57,0,0,0,3.57,3.57H84.86A3.57,3.57,0,0,0,88.43,79V46.71A10.73,10.73,0,0,0,84.81,38.68Zm-10-19.11H80.6l.12.91h-6Zm-.31,19.1a1,1,0,1,0-.77-1.92c-.26.1-.52.22-.77.34L75.3,22.55h4.93l2.24,14.56L82,36.86a1,1,0,1,0-.82,1.9,8.65,8.65,0,0,1,5.23,8v2.18H69.05V46.71A8.62,8.62,0,0,1,74.5,38.67ZM84.86,80.46H70.55a1.5,1.5,0,0,1-1.5-1.5V51H86.36V79A1.5,1.5,0,0,1,84.86,80.46Z" transform="translate(10.54 -1.21)"/><path class="cls-1" d="M71.34,46.51h.07a1,1,0,0,0,1-1,3.5,3.5,0,0,1,.06-.48,1,1,0,1,0-2-.43,6.66,6.66,0,0,0-.11.78A1,1,0,0,0,71.34,46.51Z" transform="translate(10.54 -1.21)"/><path class="cls-1" d="M72.65,43.62a1,1,0,0,0,.79-.36,6.15,6.15,0,0,1,1.62-1.32,1,1,0,1,0-.94-1.84,7.93,7.93,0,0,0-2.25,1.81A1,1,0,0,0,72,43.37,1,1,0,0,0,72.65,43.62Z" transform="translate(10.54 -1.21)"/><path class="cls-1" d="M75.15,60.44a3.07,3.07,0,0,0,3.06-2.87h0a3.07,3.07,0,0,0-2.86-3.27,3.08,3.08,0,0,0-.4,6.14Zm-1-3.14a1,1,0,0,1,1-.93h.06a1,1,0,1,1-.13,2,1,1,0,0,1-.69-.34A1,1,0,0,1,74.15,57.3Z" transform="translate(10.54 -1.21)"/><path class="cls-1" d="M80.86,62.26a3.09,3.09,0,0,0-3.27,2.87,3.08,3.08,0,0,0,2.87,3.26h.2a3.07,3.07,0,0,0,.2-6.14Zm-.27,4.07a1,1,0,0,1-.68-.34,1,1,0,0,1-.25-.73,1,1,0,0,1,1-.94h.07a1,1,0,0,1,.93,1.06A1,1,0,0,1,80.59,66.33Z" transform="translate(10.54 -1.21)"/><path class="cls-1" d="M76.32,70.92a3.09,3.09,0,0,0-3.27,2.86,3.08,3.08,0,0,0,2.86,3.27h.21a3.09,3.09,0,0,0,3.06-2.87A3.08,3.08,0,0,0,76.32,70.92Zm.8,3.13a1,1,0,0,1-1.07.93,1,1,0,0,1-.69-.33,1,1,0,0,1-.25-.73,1,1,0,0,1,1-.94h.07a1,1,0,0,1,.94,1.07Z" transform="translate(10.54 -1.21)"/><path class="cls-1" d="M57.78,38.74,55.3,22.56a1.11,1.11,0,0,0,.36-.25,1,1,0,0,0,.24-.79l-.3-2.33a1.73,1.73,0,0,0-1.71-1.51H47.6a1.74,1.74,0,0,0-1.72,1.51l-.29,2.33a1,1,0,0,0,.24.79,1,1,0,0,0,.47.29L43.71,38.72a10.6,10.6,0,0,0-3.61,8V78.8a3.53,3.53,0,0,0,3.52,3.52H57.86a3.53,3.53,0,0,0,3.53-3.52V46.72A10.64,10.64,0,0,0,57.78,38.74ZM42.1,50.57H59.38v21.1H42.1Zm5.74-30.89h5.8l.13,1H47.72Zm-.3,19a1,1,0,1,0-.74-1.86q-.42.16-.81.36l2.33-14.54h5l2.24,14.56c-.19-.1-.37-.19-.56-.27a1,1,0,0,0-.8,1.84,8.64,8.64,0,0,1,5.22,7.94v1.84H42.1V46.72A8.61,8.61,0,0,1,47.54,38.69ZM57.86,80.32H43.62A1.53,1.53,0,0,1,42.1,78.8V73.67H59.38V78.8A1.53,1.53,0,0,1,57.86,80.32Z" transform="translate(10.54 -1.21)"/><path class="cls-1" d="M43.84,46.48h.06a1,1,0,0,0,1-.94c0-.16,0-.32.07-.47a1,1,0,0,0-2-.42,6.49,6.49,0,0,0-.11.77A1,1,0,0,0,43.84,46.48Z" transform="translate(10.54 -1.21)"/><path class="cls-1" d="M45.14,43.61a1,1,0,0,0,.77-.35,6,6,0,0,1,1.62-1.32,1,1,0,0,0-.92-1.79A8.4,8.4,0,0,0,44.39,42a1,1,0,0,0,.75,1.66Z" transform="translate(10.54 -1.21)"/><path class="cls-2" d="M92,10.93a.57.57,0,0,0,.34.34.54.54,0,0,0,.48,0l3-1.31A2,2,0,0,0,97,8.81,2,2,0,0,0,97,7.2a2,2,0,0,0-1.14-1.11A2.08,2.08,0,0,0,94.47,6a2.23,2.23,0,0,0-1.07-.92,2.11,2.11,0,0,0-1.6,0,2.14,2.14,0,0,0-1.12,1.15,2,2,0,0,0,0,1.6Zm.07-5.15a1.32,1.32,0,0,1,1,0,1.39,1.39,0,0,1,.76.73l.06.14a.39.39,0,0,0,.19.19.39.39,0,0,0,.28,0l.11-.05a1.37,1.37,0,0,1,1.8,1.76,1.41,1.41,0,0,1-.74.76l-2.93,1.24-1.27-3a1.35,1.35,0,0,1,.71-1.78Z" transform="translate(10.54 -1.21)"/><path d="M86.73,11.52l.45.18-.71,1.77a.58.58,0,0,0,.32.74.55.55,0,0,0,.47,0l2.64-1.38,6.4,2.55a1.48,1.48,0,0,0,1.92-.82l3-7.48a1.48,1.48,0,0,0-.82-1.92L90.8,1.32a1.48,1.48,0,0,0-1.92.82l-3,7.46A1.48,1.48,0,0,0,86.73,11.52Zm2.83-9.1a.74.74,0,0,1,1-.41l9.6,3.82a.74.74,0,0,1,.41,1l-3,7.46a.74.74,0,0,1-1,.41L90,12a.32.32,0,0,0-.3,0l-2.39,1.25L88,11.64a.38.38,0,0,0-.21-.49L87,10.84v0a.74.74,0,0,1-.41-1Z" transform="translate(10.54 -1.21)"/><path class="cls-3" d="M.15,74.6A2.05,2.05,0,0,0-.15,73a2.08,2.08,0,0,0-1.33-.89,2.06,2.06,0,0,0-1.57.3,2.11,2.11,0,0,0-.85,1.12,2.09,2.09,0,0,0-1.35.33,2.08,2.08,0,0,0-.9,1.33,2,2,0,0,0,.3,1.57,2.09,2.09,0,0,0,1.33.9l3.25.67a.61.61,0,0,0,.47-.09.63.63,0,0,0,.27-.4Zm-.94-1.2a1.35,1.35,0,0,1,.2,1l-.65,3.16L-4.36,77a1.36,1.36,0,0,1-.87-.59,1.35,1.35,0,0,1-.2-1,1.34,1.34,0,0,1,.57-.86,1.36,1.36,0,0,1,1-.2l.12,0a.38.38,0,0,0,.27,0A.36.36,0,0,0-3.29,74l0-.15A1.45,1.45,0,0,1-2.67,73a1.36,1.36,0,0,1,1-.19A1.41,1.41,0,0,1-.79,73.4Z" transform="translate(10.54 -1.21)"/><path d="M5.2,75.31.78,68.61a1.48,1.48,0,0,0-2-.42l-8.61,5.68a1.48,1.48,0,0,0-.42,2l4.43,6.72a1.49,1.49,0,0,0,2.05.42l5.75-3.8,2.87.82A.52.52,0,0,0,5.26,80a.57.57,0,0,0,.17-.79l-1-1.59.4-.27A1.48,1.48,0,0,0,5.2,75.31Zm-.6.43a.73.73,0,0,1-.21,1v0l-.71.47a.39.39,0,0,0-.11.53l1,1.5L2,78.49a.33.33,0,0,0-.3.05l-5.91,3.89a.72.72,0,0,1-1-.21l-4.42-6.7a.72.72,0,0,1,.21-1l8.62-5.69a.74.74,0,0,1,1,.21Z" transform="translate(10.54 -1.21)"/></svg>