<svg xmlns="http://www.w3.org/2000/svg" xmlns:xlink="http://www.w3.org/1999/xlink" viewBox="0 0 95.31 69.1"><defs><style>.cls-1{fill:none;}.cls-1,.cls-2{stroke:#121212;stroke-linecap:round;stroke-linejoin:round;stroke-width:3px;}.cls-2{fill:#121212;}.cls-3,.cls-4{stroke:#fff;stroke-width:1.5px;}.cls-3,.cls-4,.cls-5{stroke-miterlimit:10;}.cls-3{fill:url(#linear-gradient);}.cls-4{fill:url(#linear-gradient-2);}.cls-5{fill:#fff;stroke:#000;}</style><linearGradient id="linear-gradient" x1="323.95" y1="-92.31" x2="337.72" y2="-92.31" gradientTransform="matrix(0.69, 0, 0, -0.69, -180.42, -17.35)" gradientUnits="userSpaceOnUse"><stop offset="0" stop-color="#f37f7b"/><stop offset="0.5" stop-color="#ed3d57"/><stop offset="1" stop-color="#dd1e47"/></linearGradient><linearGradient id="linear-gradient-2" x1="319.94" y1="-105.66" x2="339.29" y2="-105.66" xlink:href="#linear-gradient"/></defs><title>noun_Download_1719435</title><g id="Layer_1" data-name="Layer 1"><path class="cls-1" d="M37.37,17H62.63a4.77,4.77,0,0,1,4.76,4.76V78.29a4.77,4.77,0,0,1-4.76,4.76H37.37a4.77,4.77,0,0,1-4.76-4.76V21.71A4.77,4.77,0,0,1,37.37,17Z" transform="translate(-3.56 -15.45)"/><path class="cls-2" d="M59,17H41l.76,2a1.5,1.5,0,0,0,1.45,1H56.76a1.61,1.61,0,0,0,1.45-1Z" transform="translate(-3.56 -15.45)"/><path class="cls-3" d="M56.49,46.48a1.52,1.52,0,0,0-2.14-.07L51.52,49.1V40.2a1.52,1.52,0,0,0-3,0v8.9l-2.83-2.69a1.51,1.51,0,1,0-2.07,2.21l5.39,5h0a1.45,1.45,0,0,0,.41.27h.07a1.15,1.15,0,0,0,.48.07c.21,0,.35-.07.48-.07h.07c.14-.07.35-.14.42-.27h0l5.38-5A1.42,1.42,0,0,0,56.49,46.48Z" transform="translate(-3.56 -15.45)"/><path class="cls-4" d="M58.14,58.49H41.86A1.53,1.53,0,0,1,40.34,57V54.14a1.52,1.52,0,1,1,3,0v1.38H56.69V54.14a1.52,1.52,0,1,1,3,0V57A1.64,1.64,0,0,1,58.14,58.49Z" transform="translate(-3.56 -15.45)"/></g><g id="Layer_2" data-name="Layer 2"><line class="cls-5" x1="16.28" y1="21.59" x2="1.6" y2="11.42"/><line class="cls-5" x1="17.85" y1="36.27" x2="0.04" y2="34.91"/><line class="cls-5" x1="18.71" y1="50.56" x2="1.6" y2="55.68"/><line class="cls-5" x1="79.03" y1="50.52" x2="93.71" y2="60.68"/><line class="cls-5" x1="77.44" y1="36.59" x2="95.3" y2="36.45"/><line class="cls-5" x1="76.6" y1="21.54" x2="93.71" y2="16.42"/></g></svg>